<?xml version="1.0" encoding="UTF-8" standalone="no"?> <svg xmlns:dc="http://purl.org/dc/elements/1.1/" xmlns:cc="http://creativecommons.org/ns#" xmlns:rdf="http://www.w3.org/1999/02/22-rdf-syntax-ns#" xmlns:svg="http://www.w3.org/2000/svg" xmlns="http://www.w3.org/2000/svg" id="svg3949" viewBox="0 0 52.916668 18.520833" height="70" width="200"><defs id="defs3943"></defs><metadata id="metadata3946"></metadata><g transform="translate(0,-278.47918)" id="layer1"><path id="text3953" d="m 16.851841,280.17476 c -0.510971,0 -1.062405,0.0839 -1.654056,0.25155 -0.584927,0.16766 -1.166248,0.40009 -1.744453,0.69674 -0.571481,0.29665 -1.11276,0.64776 -1.623732,1.05404 -0.510971,0.40629 -0.941707,0.84483 -1.291318,1.31559 -0.349612,0.47078 -0.5915794,0.9644 -0.726045,1.48032 -0.14119,0.51591 -0.1274609,1.03477 0.040626,1.55713 0.00349,0.0109 0.00889,0.0208 0.01259,0.0316 -0.03268,-0.0111 -0.065149,-0.0232 -0.09784,-0.0316 -0.1008447,-0.0322 -0.1713514,-0.0484 -0.2116914,-0.0484 h -0.010262 c -0.221869,0.013 -0.4166437,0.0841 -0.584727,0.21313 -0.1680824,0.12898 -0.3126621,0.29318 -0.4336811,0.49309 -0.12102,0.19992 -0.2184073,0.42576 -0.292364,0.67727 -0.036817,0.12199 -0.068101,0.24581 -0.093259,0.371 -1.09e-4,5.4e-4 -4.623e-4,9.1e-4 -5.724e-4,0.002 l -0.343856,0.82724 c -0.1142956,0.24507 -0.2248397,0.49312 -0.3324127,0.74464 -0.1008489,0.2515 -0.201812,0.46118 -0.3026617,0.62884 -0.013447,0.0258 -0.040331,0.0642 -0.080672,0.11578 -0.040339,0.0452 -0.080954,0.084 -0.1212934,0.11629 -0.04034,0.0258 -0.077378,0.0288 -0.110995,0.009 -0.026893,-0.0193 -0.037047,-0.0835 -0.030323,-0.19313 0.00673,-0.2386 0.037184,-0.48364 0.09097,-0.73515 0.053787,-0.2515 0.1075568,-0.49654 0.1613433,-0.73515 0.053787,-0.24505 0.1009791,-0.47747 0.1413184,-0.69674 0.04034,-0.2257 0.053497,-0.42881 0.04005,-0.60939 -0.00673,-0.14832 -0.060494,-0.29029 -0.1613434,-0.42572 -0.10085,-0.14188 -0.2185444,-0.26413 -0.35301,-0.36731 -0.134466,-0.10963 -0.2688924,-0.19351 -0.4033585,-0.25154 -0.1344662,-0.0645 -0.2420069,-0.0903 -0.3226866,-0.0774 -0.1210195,0.0193 -0.2351386,0.087 -0.3427116,0.20313 -0.1075728,0.11608 -0.2085354,0.26766 -0.3026617,0.45467 -0.047063,0.0839 -0.09068,0.17072 -0.1310201,0.26101 -0.033617,0.0903 -0.070655,0.19334 -0.1109949,0.30943 -0.04034,0.11608 -0.090535,0.24491 -0.1510448,0.38679 -0.053787,0.14187 -0.1212856,0.30356 -0.2019652,0.48414 l -0.020025,0.0673 c 0.040339,-0.47721 0.09411,-0.96373 0.1613434,-1.4603 0.067233,-0.49657 0.1311568,-0.95129 0.1916667,-1.36402 0.067233,-0.41917 0.1311572,-0.77082 0.1916664,-1.05457 0.036004,-0.16885 0.065632,-0.28471 0.092115,-0.37364 0.1941128,0.0127 0.3831811,0.0333 0.5658457,0.0642 0.349612,0.058 0.635768,0.17069 0.8576373,0.33837 -0.073957,-0.25151 -0.191651,-0.44805 -0.3530103,-0.58992 -0.1613588,-0.14833 -0.353131,-0.25493 -0.575,-0.31943 -0.1299321,-0.0429 -0.2694206,-0.0709 -0.4165176,-0.0879 -0.013487,-0.12207 -0.040452,-0.22836 -0.080672,-0.31838 -0.047063,-0.0967 -0.1408753,-0.21293 -0.2820646,-0.34836 -0.1411896,-0.13544 -0.2893444,-0.26426 -0.4439802,-0.38679 -0.1546362,-0.12898 -0.2920654,-0.23204 -0.4130849,-0.30942 -0.1142962,-0.0838 -0.1716417,-0.12276 -0.1716417,-0.11631 0.033617,0.0774 0.053923,0.15166 0.060646,0.2226 0,0.0709 -0.00358,0.16795 -0.010294,0.29048 0,0.0322 -0.00658,0.14491 -0.020025,0.33838 -0.012192,0.17541 -0.031678,0.40961 -0.054925,0.67516 -0.1623072,0.0202 -0.3245826,0.0421 -0.4868906,0.0694 -0.2689323,0.0452 -0.5210527,0.084 -0.7563682,0.11631 -0.00673,-0.0322 -0.013302,-0.0743 -0.020025,-0.12578 -0.00672,-0.058 -0.013874,-0.11259 -0.020596,-0.16418 -0.00672,-0.058 -0.013302,-0.1101 -0.020025,-0.15525 -0.00673,-0.0516 -0.013302,-0.087 -0.020025,-0.1063 -0.047063,-0.0967 -0.1444506,-0.21293 -0.2923633,-0.34836 -0.1411893,-0.13502 -0.2893441,-0.26384 -0.4439803,-0.38637 -0.154636,-0.12898 -0.2890619,-0.23204 -0.4033583,-0.30942 -0.1210195,-0.0839 -0.181368,-0.12276 -0.181368,-0.11631 0.033617,0.0774 0.053923,0.15166 0.060647,0.2226 0.00672,0.0709 0.00672,0.16795 0,0.29049 0,0.0129 -0.00358,0.0674 -0.010294,0.16417 -0.00673,0.0967 -0.013302,0.21295 -0.020025,0.34839 -0.00672,0.12898 -0.016877,0.27095 -0.030323,0.42572 -0.013447,0.14833 -0.0236,0.28372 -0.030323,0.40625 -0.1142961,0.0645 -0.2319905,0.10287 -0.35301,0.11577 -0.12774291,0.006 -0.26216888,-0.0547 -0.40335818,-0.18365 0.0941267,0.2773 0.19508876,0.45766 0.3026617,0.5415 0.10757298,0.0775 0.24500208,0.1163 0.41308448,0.1163 -0.026893,0.32889 -0.053779,0.67699 -0.080672,1.04458 -0.026893,0.36759 -0.053778,0.73843 -0.080672,1.11247 -0.033617,0.36759 -0.063505,0.73185 -0.090398,1.09299 -0.026893,0.35469 -0.050776,0.6836 -0.070945,0.9867 -0.0268932,0.3031 -0.0466284,0.57442 -0.0600751,0.81303 -0.0134467,0.23216 -0.0205974,0.41252 -0.0205974,0.54151 0.02017,0.29665 0.10082565,0.53208 0.24201495,0.7062 0.1344662,0.16767 0.37343,0.25154 0.7163185,0.25154 0.2084227,0 0.396619,-0.0677 0.5647019,-0.20313 0.1748059,-0.14187 0.3259636,-0.30659 0.4537065,-0.49361 0.1344662,-0.19347 0.2455821,-0.38697 0.3329853,-0.58044 0.094127,-0.19991 0.1646282,-0.36108 0.2116915,-0.48361 l 0.1716416,-0.41573 c 0.011872,-0.033 0.018775,-0.0616 0.02918,-0.0931 -0.00685,0.11117 -0.017324,0.24417 -0.022313,0.34468 -0.02017,0.26441 -0.030323,0.46094 -0.030323,0.58992 -0.013447,0.18057 0.00386,0.35133 0.050921,0.51255 0.047063,0.16122 0.1241437,0.30621 0.2317166,0.4352 0.1075729,0.12253 0.2384236,0.22256 0.3930598,0.29995 0.154636,0.0775 0.3296763,0.12288 0.5246518,0.13577 -0.053786,-0.0709 -0.093828,-0.19016 -0.1207213,-0.35784 -0.02017,-0.16767 -0.030323,-0.37432 -0.030323,-0.61937 0.013446,-0.33535 0.063642,-0.66123 0.1510445,-0.97723 0.094127,-0.32245 0.1986641,-0.61244 0.3129605,-0.8704 0.1210195,-0.2644 0.2351387,-0.49025 0.3427115,-0.67726 0.1142962,-0.19347 0.1949518,-0.32532 0.2420151,-0.39626 0.033617,-0.0515 0.070655,-0.1001 0.110995,-0.14525 0.047063,-0.0516 0.087105,-0.0839 0.1207213,-0.0968 0.033617,-0.013 0.057499,0.004 0.070946,0.0485 0.02017,0.0387 0.023174,0.12257 0.00972,0.25154 -0.00673,0.0902 -0.016877,0.18678 -0.030323,0.28996 -0.013447,0.0967 -0.026603,0.20637 -0.04005,0.3289 -0.013447,0.16122 -0.027175,0.34512 -0.040621,0.55149 l -0.04005,0.61939 c -0.00673,0.20636 -0.010294,0.40591 -0.010294,0.59937 0,0.18703 0.00715,0.34518 0.020597,0.47415 0.00673,0.14832 0.046765,0.28373 0.1207213,0.40626 0.08068,0.11607 0.171489,0.21611 0.2723385,0.29995 0.1008501,0.0838 0.2048151,0.14497 0.3123881,0.18366 0.1075729,0.0387 0.2019573,0.0518 0.2826369,0.0389 0.1210196,-0.0193 0.238714,-0.084 0.35301,-0.19365 0.1142964,-0.11608 0.2182618,-0.26409 0.3123882,-0.44468 0.094127,-0.16766 0.174781,-0.34854 0.2420144,-0.54202 0.073962,-0.19992 0.148034,-0.39342 0.2219906,-0.58044 l 0.071518,-0.2047 c 0.010156,0.19261 0.029496,0.36734 0.063509,0.51413 0.047058,0.20637 0.1109874,0.39987 0.1916674,0.58044 0.08068,0.17412 0.1780673,0.32924 0.292363,0.46466 0.1075733,0.13544 0.2318455,0.24152 0.3730345,0.31891 0.1411901,0.0775 0.2989255,0.11932 0.4737323,0.12576 0.201699,0.006 0.3803143,-0.0385 0.53495,-0.13523 0.1613597,-0.0967 0.3125177,-0.23871 0.4537067,-0.42572 0.14119,-0.18704 0.275616,-0.41288 0.403359,-0.67728 0.134465,-0.27085 0.268892,-0.574 0.403357,-0.90933 l 0.04005,-0.0673 c 0.06723,-0.18701 0.111422,-0.35173 0.131592,-0.49361 0.02016,-0.14832 0.02975,-0.27715 0.02975,-0.38679 0,-0.0875 -0.0074,-0.15343 -0.01602,-0.21628 0.09849,0.0518 0.1992,0.10153 0.303234,0.1484 0.437016,0.19992 0.897639,0.35504 1.381718,0.46467 0.484078,0.10964 0.937551,0.17378 1.361119,0.19313 0.08741,0.006 0.202095,0.006 0.343284,0 0.141189,-0.006 0.278619,-0.0322 0.413084,-0.0774 0.134466,-0.0516 0.255736,-0.13192 0.363309,-0.24154 0.107572,-0.10964 0.175072,-0.26476 0.201965,-0.46467 -0.147913,0.058 -0.370145,0.10352 -0.66597,0.13576 -0.289103,0.0322 -0.6153,0.0418 -0.978358,0.0289 -0.356336,-0.013 -0.726151,-0.0518 -1.109379,-0.11631 -0.383229,-0.0645 -0.745893,-0.16453 -1.088782,-0.29995 -0.336164,-0.14188 -0.6289,-0.32224 -0.877662,-0.5415 -0.248762,-0.22572 -0.413076,-0.49955 -0.493756,-0.82198 -0.09413,-0.33535 -0.08097,-0.70014 0.04005,-1.09353 0.12102,-0.39338 0.322945,-0.78644 0.605324,-1.17982 0.282379,-0.39983 0.631886,-0.78684 1.048731,-1.16088 0.416846,-0.37403 0.870319,-0.7065 1.36112,-0.99669 0.497525,-0.29666 1.022072,-0.53814 1.573384,-0.72516 0.551311,-0.18702 1.099169,-0.29666 1.643756,-0.3289 0.194977,-0.006 0.356288,-0.006 0.48403,0 0.134466,0.006 0.245583,0.0292 0.332986,0.0679 0.0874,0.0322 0.154901,0.0838 0.201965,0.15472 0.04707,0.0645 0.08411,0.1544 0.110994,0.27049 0.02689,0.16766 0.0096,0.4031 -0.05092,0.7062 -0.05379,0.29665 -0.134443,0.6387 -0.242016,1.02565 -0.100845,0.38693 -0.218544,0.8093 -0.35301,1.26717 -0.134466,0.45787 -0.261742,0.93178 -0.382761,1.42189 -0.12102,0.48367 -0.228561,0.97677 -0.322686,1.47979 -0.09413,0.49657 -0.155047,0.98059 -0.181941,1.45136 -0.02689,0.47077 -0.01016,0.9189 0.05035,1.34454 0.06052,0.42562 0.181778,0.80606 0.363308,1.14141 0.08068,0.15476 0.181643,0.31896 0.302661,0.49307 0.127744,0.17413 0.272323,0.33582 0.433683,0.48415 0.161359,0.14832 0.342976,0.2736 0.544676,0.37678 0.208423,0.10964 0.436661,0.17432 0.685423,0.19366 -0.127742,-0.12898 -0.211401,-0.22546 -0.251741,-0.28996 l -0.08067,-0.15471 c -0.107572,-0.26441 -0.154765,-0.58372 -0.141318,-0.95775 0.01345,-0.36759 0.07022,-0.76775 0.17107,-1.19982 0.107572,-0.43207 0.252152,-0.88324 0.433681,-1.35401 0.181529,-0.47078 0.38703,-0.93863 0.615623,-1.40295 0.228592,-0.46433 0.470559,-0.91549 0.726045,-1.35401 0.255485,-0.44498 0.510608,-0.85119 0.766094,-1.21877 0.262209,-0.37404 0.511327,-0.70294 0.746642,-0.98669 0.242039,-0.28375 0.460124,-0.5 0.6551,-0.64833 -0.02017,0.0193 -0.07394,0.14515 -0.161343,0.37732 -0.0874,0.22571 -0.191369,0.52884 -0.312388,0.90934 -0.12102,0.38048 -0.251871,0.82205 -0.39306,1.32506 -0.134467,0.49656 -0.262315,1.02555 -0.383334,1.5866 -0.114296,0.55462 -0.218833,1.12553 -0.31296,1.71238 -0.08741,0.58041 -0.144177,1.14475 -0.17107,1.6929 -0.02016,0.54817 -0.0034,1.06045 0.05035,1.53768 0.06051,0.48367 0.174629,0.90302 0.342713,1.2577 0.268931,0.56105 0.595129,1.01577 0.978357,1.36402 0.389952,0.35468 0.81654,0.61234 1.280448,0.77356 -0.336164,-0.38693 -0.591288,-0.84112 -0.766094,-1.36348 -0.168083,-0.52237 -0.279199,-1.09026 -0.332985,-1.7029 -0.05379,-0.60621 -0.05679,-1.24128 -0.0097,-1.90551 0.05379,-0.66425 0.134442,-1.32863 0.242015,-1.99287 0.107572,-0.67068 0.234848,-1.32494 0.382762,-1.96338 0.147912,-0.6449 0.296066,-1.24815 0.44398,-1.80921 0.154635,-0.56106 0.295639,-1.0673 0.423383,-1.51873 0.134466,-0.45787 0.239003,-0.83173 0.31296,-1.12193 0.02017,-0.0709 -0.02344,-0.17401 -0.13102,-0.30943 -0.107572,-0.14188 -0.238996,-0.27425 -0.393632,-0.39679 -0.147912,-0.12897 -0.302646,-0.22901 -0.464005,-0.29995 -0.154636,-0.0709 -0.272331,-0.0776 -0.353011,-0.0194 -0.309271,0.21281 -0.625315,0.50635 -0.948034,0.88039 -0.322719,0.36758 -0.638191,0.78339 -0.947463,1.24771 -0.309272,0.46432 -0.608585,0.95794 -0.897687,1.48031 -0.289102,0.52236 -0.554952,1.04122 -0.79699,1.55713 -0.242039,0.51591 -0.453546,1.01612 -0.635075,1.49979 -0.181529,0.47721 -0.323105,0.9026 -0.423955,1.27664 0.06051,-0.63198 0.158468,-1.2898 0.292935,-1.97338 0.134466,-0.69004 0.265317,-1.36704 0.393059,-2.03128 0.127744,-0.67068 0.225131,-1.31232 0.292363,-1.92498 0.07395,-0.6191 0.07753,-1.17029 0.01026,-1.65396 -0.06723,-0.19348 -0.174774,-0.39053 -0.322688,-0.59045 -0.147912,-0.19991 -0.322951,-0.38027 -0.524651,-0.5415 -0.194976,-0.16766 -0.413633,-0.30307 -0.655672,-0.40625 -0.235316,-0.10962 -0.480285,-0.1647 -0.735771,-0.1647 z m 20.329832,0.54203 c -0.356335,0.0775 -0.76319,0.23198 -1.220375,0.46413 -0.450461,0.22572 -0.904505,0.50966 -1.36169,0.85146 -0.450461,0.34178 -0.877622,0.72881 -1.281021,1.16088 -0.403398,0.43208 -0.732599,0.88626 -0.988086,1.36348 -0.262209,0.47076 -0.423519,0.95782 -0.484028,1.46083 -0.06723,0.50302 0.01343,0.99309 0.242014,1.47032 0.102866,0.21376 0.231738,0.39378 0.381045,0.54727 l -0.436542,1.02985 c -0.107574,0.24507 -0.215114,0.49312 -0.322688,0.74464 -0.100845,0.2515 -0.201812,0.46117 -0.302661,0.62885 -0.01345,0.0258 -0.04033,0.0642 -0.08067,0.11577 -0.04034,0.0452 -0.08038,0.084 -0.120722,0.1163 -0.04034,0.0258 -0.07738,0.0288 -0.110992,0.009 -0.02689,-0.0193 -0.03705,-0.0835 -0.03032,-0.19312 0.0068,-0.23861 0.03719,-0.48365 0.09097,-0.73516 0.05379,-0.2515 0.107556,-0.49654 0.161343,-0.73515 0.05379,-0.24505 0.100411,-0.47748 0.140746,-0.69674 0.04034,-0.22571 0.05406,-0.42881 0.04063,-0.60939 -0.0068,-0.14832 -0.06049,-0.29029 -0.161342,-0.42571 -0.100855,-0.14188 -0.218545,-0.26414 -0.35301,-0.36732 -0.134467,-0.10963 -0.268893,-0.1935 -0.403358,-0.25155 -0.134467,-0.0645 -0.242009,-0.0902 -0.32269,-0.0774 -0.127743,0.0193 -0.245438,0.087 -0.353007,0.20313 -0.107574,0.11607 -0.208538,0.26764 -0.302663,0.45467 -0.06051,0.12251 -0.117855,0.25436 -0.171644,0.39624 -0.04706,0.13543 -0.10741,0.30317 -0.181367,0.50309 0.0068,-0.10963 -0.0034,-0.20612 -0.03032,-0.28996 -0.02689,-0.0902 -0.05678,-0.17113 -0.0904,-0.24207 -0.04034,-0.0967 -0.128145,-0.20637 -0.262611,-0.32889 -0.127743,-0.12254 -0.258595,-0.23519 -0.39306,-0.33838 -0.141189,-0.10962 -0.262459,-0.20007 -0.363308,-0.27101 -0.107575,-0.0709 -0.161343,-0.10327 -0.161343,-0.0968 0.03361,0.0775 0.06408,0.15468 0.09097,0.23206 0.02689,0.0709 0.04005,0.17098 0.04005,0.29996 l -0.120722,1.14141 c -0.0023,0.028 -0.0045,0.0664 -0.0069,0.0958 l -0.379902,0.87197 c -0.161358,0.316 -0.326245,0.54486 -0.494329,0.68674 -0.161357,0.14187 -0.316092,0.23534 -0.464003,0.28049 0.134466,-0.3418 0.212117,-0.72223 0.232289,-1.14142 0.02689,-0.42562 -0.02688,-0.86113 -0.161346,-1.30611 -0.09413,-0.32246 -0.259011,-0.59325 -0.494328,-0.81252 -0.235316,-0.21927 -0.541206,-0.33546 -0.917711,-0.34836 -0.188253,-0.006 -0.356142,0.0289 -0.504055,0.10629 -0.147913,0.0775 -0.272185,0.184 -0.373035,0.31943 -0.100845,0.12898 -0.178503,0.28357 -0.232288,0.46415 -0.06052,0.17411 -0.09397,0.35802 -0.100697,0.55149 -0.107572,0.17411 -0.198382,0.37118 -0.272339,0.59044 -0.07395,0.21281 -0.121148,0.43813 -0.141318,0.67674 -0.02017,0.23217 -0.0136,0.47115 0.02003,0.71621 0.03362,0.23861 0.107694,0.46747 0.22199,0.68674 0.14119,0.2773 0.316229,0.47081 0.524652,0.58043 0.208422,0.10319 0.423504,0.1613 0.645373,0.17419 0.235316,0.013 0.456977,-0.0391 0.665399,-0.15524 0.208422,-0.11608 0.393616,-0.28684 0.554975,-0.51255 0.03361,0.006 0.0605,0.01 0.08067,0.01 h 0.0904 c 0.188252,0 0.359719,-0.0455 0.514351,-0.13577 0.154637,-0.0967 0.296213,-0.21597 0.423956,-0.35784 0.127743,-0.14187 0.238288,-0.30002 0.332414,-0.47414 0.05672,-0.10493 0.102791,-0.20286 0.15219,-0.30311 -0.0096,0.1726 -0.01717,0.34283 -0.01717,0.50623 0,0.18703 0.0096,0.34517 0.02975,0.47415 0.02016,0.18057 0.07394,0.33214 0.161343,0.45467 0.08741,0.11608 0.19194,0.21257 0.31296,0.28996 0.121018,0.0709 0.248868,0.12299 0.383333,0.15523 0.141189,0.0258 0.269038,0.0384 0.383333,0.0384 -0.09413,-0.10964 -0.168204,-0.25161 -0.22199,-0.42574 -0.04034,-0.37403 -0.02003,-0.74789 0.06064,-1.12193 0.08068,-0.37404 0.181071,-0.71911 0.302089,-1.03512 0.127743,-0.31599 0.255592,-0.58679 0.383335,-0.8125 0.134466,-0.22571 0.231853,-0.38031 0.292361,-0.46414 0.03362,-0.0515 0.07066,-0.1001 0.110997,-0.14525 0.04034,-0.0516 0.07738,-0.0839 0.110996,-0.0968 0.03361,-0.013 0.0605,0.004 0.08067,0.0485 0.02017,0.0387 0.02374,0.12256 0.01026,0.25154 -0.01345,0.0902 -0.02718,0.18677 -0.04063,0.28996 -0.0068,0.0967 -0.01687,0.20637 -0.03032,0.32889 -0.01345,0.16123 -0.02661,0.34513 -0.04006,0.5515 l -0.04062,0.61938 c -0.0068,0.20637 -0.0133,0.40592 -0.02003,0.59938 0,0.18703 0.0066,0.34516 0.02003,0.47415 0.01345,0.14832 0.05707,0.28372 0.131018,0.40626 0.08068,0.11607 0.171491,0.21611 0.27234,0.29995 0.100844,0.0838 0.205384,0.14497 0.31296,0.18366 0.107571,0.0387 0.201384,0.0518 0.282064,0.0389 0.121021,-0.0193 0.238714,-0.084 0.353011,-0.19365 0.114295,-0.11609 0.218831,-0.26411 0.312961,-0.44468 0.0874,-0.16766 0.164483,-0.34855 0.231714,-0.54202 0.07396,-0.19992 0.148035,-0.39342 0.22199,-0.58044 l 0.131021,-0.34836 0.03032,-0.0673 c 0.06723,-0.18702 0.110852,-0.35173 0.131021,-0.49361 0.02689,-0.14832 0.04062,-0.27715 0.04062,-0.38679 0,-0.1058 -0.0075,-0.19177 -0.02003,-0.26154 0.06494,0.06 0.133611,0.11524 0.206543,0.16472 0.275655,0.18701 0.581547,0.32241 0.917711,0.40626 0.34289,0.0774 0.705556,0.11629 1.088782,0.11629 0.389953,0 0.77707,-0.0131 1.1603,-0.0389 0.389949,-0.0258 0.766345,-0.0546 1.129404,-0.0868 0.363058,-0.0387 0.689256,-0.0518 0.978357,-0.0389 0.289101,0.013 0.534071,0.0583 0.735772,0.13577 0.201698,0.0775 0.333123,0.21581 0.393632,0.41573 0.12102,0.38049 0.127596,0.75132 0.02003,1.11247 -0.107574,0.36114 -0.309498,0.68701 -0.605324,0.97721 -0.289102,0.28376 -0.658918,0.51566 -1.109379,0.69622 -0.443739,0.18057 -0.940827,0.27404 -1.492141,0.28048 -0.309272,0.006 -0.581699,-0.0516 -0.817013,-0.17418 -0.235316,-0.11608 -0.437241,-0.2737 -0.605325,-0.47362 -0.168081,-0.19346 -0.305511,-0.41931 -0.413083,-0.67727 -0.100845,-0.26439 -0.171924,-0.53875 -0.212264,-0.8225 -0.181529,0.0322 -0.329113,0.0939 -0.443407,0.18418 -0.107576,0.0903 -0.185227,0.20294 -0.23229,0.33837 -0.04706,0.12898 -0.06022,0.27398 -0.04005,0.4352 0.02016,0.15477 0.06736,0.30989 0.141318,0.46466 0.107574,0.22572 0.271888,0.43184 0.493757,0.61887 0.221869,0.19346 0.487717,0.35161 0.79699,0.47413 0.309272,0.12899 0.648625,0.21889 1.018407,0.27048 0.369784,0.058 0.753331,0.0646 1.15,0.0194 0.315998,-0.0387 0.635043,-0.11902 0.957764,-0.24155 0.329441,-0.12252 0.63891,-0.28067 0.928007,-0.47414 0.295827,-0.18702 0.561104,-0.40326 0.796422,-0.64832 0.235312,-0.23862 0.420508,-0.49627 0.554975,-0.77357 0.141189,-0.28376 0.218269,-0.5773 0.231714,-0.8804 0.02018,-0.3031 -0.04376,-0.60624 -0.191667,-0.90934 -0.161355,-0.32244 -0.396174,-0.57405 -0.705447,-0.75462 -0.309272,-0.18702 -0.659351,-0.32243 -1.049303,-0.40626 -0.389953,-0.0838 -0.806387,-0.12879 -1.250126,-0.13524 -0.443738,-0.006 -0.877476,1.2e-4 -1.301043,0.0194 -0.416847,0.0193 -0.810543,0.0452 -1.180325,0.0774 -0.363058,0.0258 -0.66895,0.0319 -0.917711,0.0189 -0.194978,-0.0258 -0.325829,-0.0935 -0.393061,-0.20313 -0.0605,-0.10962 -0.08382,-0.23492 -0.07037,-0.37679 0.01345,-0.14187 0.04691,-0.29041 0.100696,-0.44519 0.05379,-0.15478 0.100972,-0.29675 0.141318,-0.42572 0.100845,-0.34825 0.26216,-0.69634 0.484029,-1.04459 0.228592,-0.34824 0.487292,-0.68069 0.776393,-0.99669 0.295827,-0.32245 0.608295,-0.62506 0.937735,-0.90881 0.336167,-0.28376 0.655786,-0.53235 0.958337,-0.74516 0.309272,-0.21926 0.591281,-0.39659 0.846764,-0.53203 0.262209,-0.14187 0.464136,-0.22877 0.605325,-0.261 0.168083,-0.0387 0.302508,-0.0357 0.403357,0.009 0.107575,0.0387 0.188228,0.0998 0.242014,0.18366 0.05379,0.0774 0.08725,0.1744 0.100697,0.29049 0.01345,0.10962 0.01702,0.21926 0.01026,0.32889 -0.134467,0.3289 -0.268891,0.6674 -0.403358,1.01565 -0.134466,0.34178 -0.218696,0.67726 -0.252314,1.00615 -0.02689,0.32245 0.02388,0.63163 0.151617,0.92828 0.134467,0.2902 0.399743,0.55141 0.796419,0.78359 -0.08741,-0.16124 -0.110716,-0.34817 -0.07038,-0.56098 0.04034,-0.21282 0.114418,-0.43866 0.221992,-0.67727 0.107573,-0.24505 0.231844,-0.49969 0.373033,-0.7641 0.141189,-0.27085 0.269038,-0.54165 0.383336,-0.81251 0.121016,-0.27085 0.211826,-0.53864 0.272335,-0.80303 0.06052,-0.27086 0.06351,-0.52851 0.0097,-0.77357 -0.05379,-0.25151 -0.181635,-0.48696 -0.383336,-0.70622 -0.194975,-0.21927 -0.493716,-0.41579 -0.897114,-0.5899 0.12102,0.2257 0.164637,0.48336 0.131021,0.77356 -0.127744,-0.11608 -0.26932,-0.22216 -0.423958,-0.31889 -0.154634,-0.0967 -0.318947,-0.18061 -0.493754,-0.25155 -0.168083,-0.0709 -0.343124,-0.12248 -0.524653,-0.15471 -0.174807,-0.0387 -0.349273,-0.0548 -0.524079,-0.0485 z m 4.209801,1.71184 c 0.03362,0.0774 0.05392,0.15166 0.06064,0.2226 0.0068,0.0709 0.0068,0.16795 0,0.29049 0,0.0129 -0.0036,0.0674 -0.01026,0.16417 -0.0068,0.0967 -0.0133,0.21295 -0.02003,0.34838 -0.0068,0.12899 -0.01688,0.27096 -0.03032,0.42573 -0.01345,0.14833 -0.0236,0.28372 -0.03032,0.40626 -0.114297,0.0645 -0.23199,0.10286 -0.35301,0.11576 -0.127743,0.006 -0.262169,-0.0546 -0.403358,-0.18365 0.09413,0.2773 0.195087,0.45766 0.302661,0.5415 0.107572,0.0775 0.245574,0.1163 0.413657,0.1163 -0.02689,0.32889 -0.05378,0.67699 -0.08067,1.04458 -0.02689,0.36759 -0.05378,0.73843 -0.08067,1.11247 -0.03362,0.36758 -0.06408,0.73185 -0.09097,1.09299 -0.02689,0.35468 -0.0502,0.6836 -0.07038,0.9867 -0.02689,0.3031 -0.04721,0.57442 -0.06065,0.81303 -0.01345,0.23216 -0.02003,0.41252 -0.02003,0.5415 0.02017,0.29665 0.100824,0.53209 0.242018,0.70621 0.134465,0.16767 0.372857,0.25154 0.715747,0.25154 0.20842,0 0.396616,-0.0677 0.5647,-0.20313 0.174806,-0.14187 0.326535,-0.30659 0.454278,-0.49361 0.134467,-0.19347 0.245011,-0.38697 0.332414,-0.58044 0.0714,-0.15165 0.116451,-0.25967 0.160772,-0.36678 0.0053,0.0737 0.008,0.14714 0.01831,0.22207 0.03361,0.23861 0.107123,0.46747 0.221415,0.68674 0.141192,0.27729 0.31623,0.47081 0.524653,0.58043 0.208424,0.10319 0.423506,0.1613 0.645375,0.17419 0.235316,0.013 0.456973,-0.0391 0.665398,-0.15524 0.208423,-0.11608 0.393617,-0.28684 0.554974,-0.51255 0.03362,0.006 0.0605,0.01 0.08067,0.01 h 0.0904 c 0.188251,0 0.359718,-0.0455 0.51435,-0.13577 0.154638,-0.0967 0.296213,-0.21597 0.423956,-0.35784 0.119917,-0.13318 0.223241,-0.28202 0.313532,-0.44362 -0.0294,0.22144 -0.05871,0.43708 -0.08811,0.66622 -0.05379,0.41918 -0.104558,0.83498 -0.151617,1.24771 -0.04707,0.41918 -0.0841,0.80619 -0.110994,1.16088 -0.03362,0.36113 -0.05335,0.67689 -0.06007,0.94775 -0.01345,0.27086 -0.0069,0.46791 0.02003,0.59045 0.04034,0.20636 0.104262,0.38014 0.191669,0.52202 0.08068,0.14187 0.171487,0.26163 0.272336,0.35837 0.09413,0.10318 0.187938,0.18652 0.282064,0.25102 0.08741,0.0645 0.157907,0.11653 0.211693,0.15523 -0.100845,-0.13543 -0.15462,-0.39059 -0.161343,-0.76462 -0.01345,-0.36759 0.0033,-0.79601 0.05035,-1.28613 0.04034,-0.49011 0.104262,-1.00951 0.191668,-1.55765 0.0874,-0.54817 0.181787,-1.06756 0.282636,-1.55767 0.147914,0.23216 0.332533,0.43223 0.554402,0.59991 0.228593,0.16123 0.460979,0.24206 0.696297,0.24206 0.107571,0 0.218116,-0.0353 0.332411,-0.1063 0.114298,-0.0709 0.23199,-0.17097 0.35301,-0.29995 0.147913,0.0516 0.29907,0.0774 0.453707,0.0774 0.107573,0 0.215687,-0.0293 0.323258,-0.0873 0.107574,-0.0645 0.207963,-0.14481 0.30209,-0.24154 0.100855,-0.10317 0.195235,-0.21939 0.282638,-0.34837 0.08741,-0.13542 0.161481,-0.27384 0.22199,-0.41572 l 0.140746,-0.3389 0.131593,-0.34836 0.04005,-0.0673 c 0.06723,-0.18702 0.11085,-0.35173 0.131019,-0.49361 0.02017,-0.14832 0.03032,-0.27715 0.03032,-0.38679 0,-0.10963 -0.0066,-0.20007 -0.02003,-0.27101 -0.01345,-0.0775 -0.02003,-0.13549 -0.02003,-0.17418 l -0.484032,1.14193 c -0.04706,0.11609 -0.100834,0.23834 -0.161343,0.36731 -0.0605,0.12899 -0.124433,0.25781 -0.191665,0.38679 -0.127743,0.23217 -0.262171,0.42922 -0.40336,0.59044 -0.141189,0.15478 -0.299497,0.23207 -0.474304,0.23207 h -0.02003 c 0.154638,-0.23216 0.295643,-0.49336 0.423386,-0.78356 0.134466,-0.29665 0.235426,-0.5998 0.30266,-0.90934 0.07396,-0.30955 0.10742,-0.61269 0.100697,-0.90934 0,-0.29665 -0.05677,-0.56745 -0.171071,-0.81252 -0.04706,-0.10318 -0.13787,-0.20019 -0.272336,-0.29047 -0.134467,-0.0967 -0.286198,-0.17705 -0.454278,-0.24155 -0.168084,-0.0645 -0.335975,-0.10642 -0.504058,-0.12578 -0.161357,-0.0257 -0.295786,-0.0227 -0.403357,0.009 -0.147912,0.0452 -0.285913,0.16438 -0.413657,0.35785 -0.121021,0.18701 -0.23514,0.40628 -0.342711,0.65779 -0.05379,-0.0967 -0.144596,-0.20282 -0.272339,-0.31891 -0.127743,-0.12251 -0.258595,-0.2357 -0.393061,-0.33888 -0.134466,-0.10964 -0.252159,-0.19653 -0.353008,-0.26102 -0.100856,-0.0709 -0.151617,-0.10328 -0.151617,-0.0968 0.03361,0.0775 0.06408,0.15468 0.09096,0.23206 0.02689,0.0709 0.04005,0.17099 0.04005,0.29997 -0.0068,0.0515 -0.01988,0.18094 -0.04005,0.38731 -0.02689,0.19992 -0.06751,0.451 -0.121293,0.7541 -0.0096,0.0726 -0.02332,0.17265 -0.03376,0.25048 l -0.312389,0.71727 c -0.161358,0.31599 -0.326245,0.54486 -0.494328,0.68674 -0.161358,0.14187 -0.315521,0.23534 -0.463433,0.28048 0.134466,-0.3418 0.211546,-0.72222 0.231718,-1.14141 0.02689,-0.42563 -0.02688,-0.86114 -0.161346,-1.30612 -0.09413,-0.32245 -0.259011,-0.59324 -0.494329,-0.81251 -0.235314,-0.21927 -0.541203,-0.33547 -0.91771,-0.34837 -0.188252,-0.006 -0.356142,0.0289 -0.504054,0.1063 -0.147913,0.0775 -0.272187,0.18399 -0.373036,0.31942 -0.100845,0.12899 -0.178503,0.28358 -0.232289,0.46415 -0.0605,0.17412 -0.09398,0.35803 -0.100696,0.5515 -0.0169,0.0274 -0.03085,0.0589 -0.04691,0.0873 -4.78e-4,-0.003 -7.9e-5,-0.007 -5.74e-4,-0.01 -0.01345,-0.0775 -0.02003,-0.1355 -0.02003,-0.17418 l -0.484601,1.14193 c -0.05379,0.12253 -0.114136,0.25136 -0.181368,0.38679 -0.06051,0.13541 -0.124435,0.27082 -0.191667,0.40625 -0.06723,0.12897 -0.137735,0.24821 -0.211693,0.35785 -0.06723,0.10962 -0.134159,0.20007 -0.201393,0.271 -0.05379,0.0645 -0.121283,0.1226 -0.201965,0.17419 -0.07395,0.0452 -0.144458,0.0739 -0.211692,0.0869 -0.0605,0.006 -0.11428,-0.006 -0.161343,-0.039 -0.04034,-0.0387 -0.05406,-0.11244 -0.04063,-0.22207 l 0.05035,-0.3389 c 0.02689,-0.18057 0.06093,-0.40286 0.101267,-0.66726 0.04034,-0.26441 0.08754,-0.56098 0.141317,-0.88987 0.05379,-0.3289 0.107558,-0.66135 0.161344,-0.9967 0.05379,-0.34179 0.107557,-0.67675 0.161343,-1.00563 0.05379,-0.33535 0.100411,-0.63547 0.140746,-0.89987 0.04707,-0.27085 0.0841,-0.49671 0.110996,-0.67727 0.02689,-0.18703 0.04362,-0.30625 0.05035,-0.35785 0.268932,-0.0257 0.588553,-0.0581 0.958335,-0.0968 0.376504,-0.0452 0.752897,-0.0673 1.129404,-0.0673 0.383226,-0.006 0.746463,0.0193 1.089353,0.0774 0.34961,0.058 0.635195,0.17069 0.857064,0.33837 -0.07395,-0.25151 -0.191649,-0.44804 -0.35301,-0.58991 -0.16136,-0.14833 -0.35313,-0.25494 -0.575,-0.31944 -0.215146,-0.0709 -0.453537,-0.10628 -0.715746,-0.10628 -0.255487,-0.006 -0.521335,0.003 -0.79699,0.0289 -0.268932,0.0258 -0.537785,0.0612 -0.806718,0.1063 -0.268932,0.0452 -0.521052,0.084 -0.756368,0.1163 -0.0068,-0.0322 -0.0133,-0.0742 -0.02003,-0.12577 -0.0068,-0.058 -0.0133,-0.1126 -0.02003,-0.16419 -0.0068,-0.058 -0.01387,-0.11009 -0.0206,-0.15524 -0.0068,-0.0515 -0.0133,-0.087 -0.02003,-0.1063 -0.04706,-0.0967 -0.144452,-0.21293 -0.292364,-0.34837 -0.141189,-0.13543 -0.289344,-0.26425 -0.443978,-0.38679 -0.154638,-0.12897 -0.289064,-0.23203 -0.403361,-0.30941 -0.121017,-0.0838 -0.181368,-0.12276 -0.181368,-0.11631 z m -37.3858812,2.1039 c -0.013454,0.16937 -0.027167,0.31799 -0.040621,0.50835 -0.033617,0.38049 -0.064077,0.77354 -0.09097,1.17982 l -0.1006966,1.21877 c -0.014956,0.18076 -0.02375,0.33434 -0.036045,0.50361 l -0.4754479,1.12193 c -0.053787,0.12253 -0.1141353,0.25136 -0.1813683,0.38679 -0.06051,0.13542 -0.1244337,0.27083 -0.1916668,0.40626 -0.067232,0.12897 -0.137735,0.24821 -0.2116915,0.35784 -0.067233,0.10963 -0.1347322,0.20008 -0.2019652,0.27101 -0.053787,0.0645 -0.1207134,0.1226 -0.2013931,0.17418 -0.073957,0.0452 -0.1444584,0.0739 -0.2116916,0.0869 -0.06051,0.006 -0.1142802,-0.006 -0.1613432,-0.039 -0.04034,-0.0387 -0.054068,-0.11244 -0.040623,-0.22207 l 0.050348,-0.3389 c 0.026893,-0.18057 0.060357,-0.40286 0.1006966,-0.66727 0.04034,-0.2644 0.087533,-0.56097 0.1413185,-0.88987 0.053787,-0.32889 0.1075569,-0.66135 0.1613432,-0.99669 0.053787,-0.3418 0.1075569,-0.67675 0.1613434,-1.00564 0.053787,-0.33534 0.100978,-0.63546 0.1413185,-0.89986 0.047063,-0.27085 0.084101,-0.49671 0.110995,-0.67727 0.026893,-0.18703 0.043625,-0.30625 0.050348,-0.35785 0.2689323,-0.0258 0.5885518,-0.0581 0.9583338,-0.0968 0.089839,-0.0108 0.1796397,-0.016 0.2694774,-0.0242 z m 21.3980162,2.40386 c 0.07395,0 0.148034,0.052 0.221991,0.15524 0.08068,0.0967 0.138024,0.23818 0.171641,0.4252 0.02017,0.12253 0.03032,0.27765 0.03032,0.46467 0.0068,0.18701 -4.26e-4,0.39011 -0.0206,0.60937 -0.01345,0.21282 -0.03675,0.43209 -0.07038,0.6578 -0.03361,0.22572 -0.07423,0.43841 -0.121293,0.63833 -0.127743,-0.11608 -0.245437,-0.25451 -0.35301,-0.41573 -0.100845,-0.16767 -0.188083,-0.34198 -0.26204,-0.52255 0.03361,-0.16767 0.07723,-0.32226 0.13102,-0.46414 0.0605,-0.14833 0.128009,-0.27111 0.201964,-0.36785 0.02018,-0.0258 0.04048,-0.0485 0.06064,-0.0679 l 0.06007,-0.0579 c -0.02017,-0.0452 -0.0572,-0.0967 -0.110995,-0.1547 -0.07395,-0.0838 -0.164193,-0.14194 -0.271767,-0.17419 -0.107572,-0.0322 -0.215685,-0.0419 -0.323258,-0.0289 0.02018,-0.20637 0.08109,-0.37411 0.18194,-0.50309 0.107573,-0.12897 0.265309,-0.19364 0.473731,-0.19364 z m 19.736525,0 c 0.07395,0 0.148032,0.052 0.221989,0.15524 0.08068,0.0967 0.138025,0.23818 0.171643,0.4252 0.02016,0.12253 0.03032,0.27765 0.03032,0.46467 0.0068,0.18701 -4.24e-4,0.39011 -0.0206,0.60937 -0.01345,0.21282 -0.03675,0.43209 -0.07037,0.6578 -0.03362,0.22572 -0.07424,0.43841 -0.121296,0.63833 -0.127741,-0.11608 -0.244865,-0.25451 -0.352436,-0.41573 -0.100845,-0.16767 -0.188657,-0.34198 -0.262615,-0.52255 0.03362,-0.16767 0.07723,-0.32226 0.131022,-0.46414 0.0605,-0.14833 0.12801,-0.27111 0.201965,-0.36785 0.02018,-0.0258 0.04048,-0.0485 0.06064,-0.0679 l 0.06007,-0.0579 c -0.02017,-0.0452 -0.05663,-0.0967 -0.110421,-0.1547 -0.07396,-0.0838 -0.164765,-0.14194 -0.272339,-0.17419 -0.107573,-0.0322 -0.215115,-0.0419 -0.322686,-0.0289 0.02016,-0.20637 0.08052,-0.37411 0.181368,-0.50309 0.107571,-0.12897 0.265309,-0.19364 0.473732,-0.19364 z m -35.1408074,0.17418 c 0.026893,0.14187 0.023889,0.30305 -0.00973,0.48361 -0.033611,0.17412 -0.090963,0.355 -0.1716424,0.54203 -0.08068,0.18702 -0.185217,0.37697 -0.3129593,0.57044 -0.1277434,0.19347 -0.2717508,0.37737 -0.4331098,0.55149 v -0.0578 c 0.00677,-0.0194 0.00973,-0.0422 0.00973,-0.0679 0.00677,-0.15476 0.040192,-0.3321 0.1006966,-0.53202 0.067233,-0.20637 0.1448855,-0.40644 0.2322888,-0.59991 0.094127,-0.19991 0.1915141,-0.38027 0.292363,-0.5415 0.1008553,-0.16121 0.1982374,-0.27743 0.2923641,-0.34836 z m 40.1573264,0.0348 c 0.01134,9.1e-4 0.02135,0.005 0.02975,0.0137 0.04707,0.0387 0.07696,0.14833 0.09039,0.3289 0.02017,0.18057 0.01059,0.40339 -0.02975,0.66779 -0.02017,0.12254 -0.05063,0.25793 -0.09097,0.40626 -0.04034,0.14187 -0.08396,0.28687 -0.131018,0.4352 -0.04707,0.14832 -0.100834,0.29332 -0.161343,0.43519 -0.05379,0.14189 -0.111135,0.27426 -0.171642,0.39679 -0.03362,-0.0775 -0.07066,-0.1744 -0.110997,-0.29049 -0.03361,-0.12252 -0.05693,-0.21243 -0.07038,-0.27048 -0.0874,-0.34824 -0.104135,-0.66453 -0.05035,-0.94828 0.06051,-0.2902 0.18121,-0.57717 0.362739,-0.86093 0.05379,-0.0775 0.11771,-0.15468 0.191665,-0.23207 0.06052,-0.058 0.107855,-0.0852 0.141892,-0.0816 z m -39.478198,0.5136 c 0.20366,0.16106 0.423246,0.30769 0.66025,0.43889 l -0.401642,0.96722 c -0.134467,0.2773 -0.245011,0.50263 -0.332413,0.67674 -0.08741,0.16768 -0.161481,0.30308 -0.221991,0.40626 -0.05379,0.10318 -0.100982,0.18048 -0.141318,0.23207 -0.03361,0.0516 -0.06707,0.0971 -0.100696,0.13578 -0.09413,0.0967 -0.1915143,0.17705 -0.2923633,0.24153 -0.1008553,0.0645 -0.2018122,0.10038 -0.3026622,0.10683 -0.094127,0 -0.1747824,-0.0258 -0.2420147,-0.0774 -0.060515,-0.0581 -0.1077025,-0.13231 -0.1413191,-0.22259 -0.033611,-0.0903 -0.060505,-0.19691 -0.08067,-0.31943 -0.013447,-0.12253 -0.020027,-0.25136 -0.020027,-0.38678 0.3092724,-0.15478 0.5781254,-0.34829 0.8067167,-0.58044 0.2353166,-0.23217 0.4205096,-0.4772 0.5549766,-0.73516 0.141189,-0.26441 0.224848,-0.52864 0.251741,-0.79304 0.0031,-0.0306 0.0021,-0.0604 0.0034,-0.0905 z m 38.297873,1.32823 c 0.02018,0.10963 0.04348,0.21927 0.07038,0.3289 0.02689,0.10319 0.06036,0.20979 0.100696,0.31942 0.03361,0.0967 0.07423,0.1998 0.121293,0.30943 0.04706,0.10319 0.103839,0.20322 0.171068,0.29995 -0.0874,0.14833 -0.174636,0.26756 -0.262039,0.35785 -0.08068,0.0902 -0.151181,0.14182 -0.211693,0.15471 -0.114295,0.0258 -0.201528,-0.0222 -0.262039,-0.14471 -0.05379,-0.12254 -0.07409,-0.26148 -0.06064,-0.41626 0.02689,-0.14187 0.0502,-0.26413 0.07037,-0.36731 0.02017,-0.10318 0.04048,-0.2002 0.06064,-0.29049 0.02689,-0.0967 0.05378,-0.18665 0.08067,-0.27048 0.03362,-0.0838 0.07423,-0.17783 0.121293,-0.28101 z m -24.13742,1.02564 c 0.09413,0.0967 0.188511,0.18362 0.282636,0.26101 0.100845,0.0774 0.198238,0.14864 0.292364,0.21312 -0.08741,0.21282 -0.188365,0.32548 -0.302662,0.33838 -0.04706,0.006 -0.0871,-0.01 -0.120722,-0.0485 -0.03362,-0.0387 -0.06408,-0.0901 -0.09097,-0.15472 -0.02018,-0.0645 -0.0339,-0.13521 -0.04063,-0.2126 -0.0068,-0.0838 -0.0097,-0.16468 -0.0097,-0.24207 z m 19.736523,0 c 0.09413,0.0967 0.188512,0.18362 0.282638,0.26101 0.100845,0.0774 0.198235,0.14864 0.292361,0.21312 -0.0874,0.21282 -0.188363,0.32548 -0.30266,0.33838 -0.04707,0.006 -0.0871,-0.01 -0.120722,-0.0485 -0.03362,-0.0387 -0.06408,-0.0901 -0.09097,-0.15472 -0.02017,-0.0645 -0.0339,-0.13521 -0.04063,-0.2126 -0.0068,-0.0838 -0.0097,-0.16468 -0.0097,-0.24207 z" style="font-style:normal;font-variant:normal;font-weight:normal;font-stretch:normal;font-size:9.30200958px;line-height:1.25;font-family:'Allessa Personal Use';-inkscape-font-specification:'Allessa Personal Use';letter-spacing:0px;word-spacing:0px;fill:#000000;fill-opacity:1;stroke:none;stroke-width:0.24692562"></path></g></svg> 